<svg width="20" height="20" viewBox="0 0 20 20" fill="none" xmlns="http://www.w3.org/2000/svg">
<path d="M3.70141 19C3.22596 19 2.82353 18.8352 2.49412 18.5056C2.16471 18.1761 2 17.7734 2 17.2977L2 4.69412C2 4.21842 2.16471 3.81579 2.49412 3.48621C2.82353 3.15663 3.22596 2.99184 3.70141 2.99184L5.00447 2.99184V1.72413C5.00447 1.51775 5.07357 1.34543 5.21176 1.20716C5.34996 1.06905 5.5222 1 5.72847 1C5.9349 1 6.10714 1.06905 6.24518 1.20716C6.38337 1.34543 6.45247 1.51775 6.45247 1.72413V2.99184L13.5838 2.99184V1.70624C13.5838 1.50583 13.6513 1.33798 13.7864 1.20269C13.9216 1.06756 14.0893 1 14.2896 1C14.49 1 14.6576 1.06756 14.7927 1.20269C14.9279 1.33798 14.9955 1.50583 14.9955 1.70624V2.99184L16.2986 2.99184C16.774 2.99184 17.1765 3.15663 17.5059 3.48621C17.8353 3.81579 18 4.21842 18 4.69412L18 17.2977C18 17.7734 17.8353 18.1761 17.5059 18.5056C17.1765 18.8352 16.774 19 16.2986 19L3.70141 19ZM3.70141 17.5875L16.2986 17.5875C16.3711 17.5875 16.4374 17.5573 16.4976 17.4969C16.558 17.4366 16.5882 17.3702 16.5882 17.2977V8.46074L3.41176 8.46074L3.41176 17.2977C3.41176 17.3702 3.44196 17.4366 3.50235 17.4969C3.56259 17.5573 3.62894 17.5875 3.70141 17.5875ZM3.41176 7.04826L16.5882 7.04826V4.69412C16.5882 4.62161 16.558 4.55522 16.4976 4.49496C16.4374 4.43453 16.3711 4.40432 16.2986 4.40432L3.70141 4.40432C3.62894 4.40432 3.56259 4.43453 3.50235 4.49496C3.44196 4.55522 3.41176 4.62161 3.41176 4.69412V7.04826ZM10 12.0101C9.76957 12.0101 9.57318 11.9289 9.41082 11.7664C9.24863 11.6042 9.16753 11.4077 9.16753 11.177C9.16753 10.9464 9.24863 10.7499 9.41082 10.5875C9.57318 10.4252 9.76957 10.3441 10 10.3441C10.2304 10.3441 10.4268 10.4252 10.5892 10.5875C10.7514 10.7499 10.8325 10.9464 10.8325 11.177C10.8325 11.4077 10.7514 11.6042 10.5892 11.7664C10.4268 11.9289 10.2304 12.0101 10 12.0101ZM6.23529 12.0101C6.00486 12.0101 5.80847 11.9289 5.64612 11.7664C5.48392 11.6042 5.40282 11.4077 5.40282 11.177C5.40282 10.9464 5.48392 10.7499 5.64612 10.5875C5.80847 10.4252 6.00486 10.3441 6.23529 10.3441C6.46573 10.3441 6.66212 10.4252 6.82447 10.5875C6.98667 10.7499 7.06776 10.9464 7.06776 11.177C7.06776 11.4077 6.98667 11.6042 6.82447 11.7664C6.66212 11.9289 6.46573 12.0101 6.23529 12.0101ZM13.7647 12.0101C13.5343 12.0101 13.3379 11.9289 13.1755 11.7664C13.0133 11.6042 12.9322 11.4077 12.9322 11.177C12.9322 10.9464 13.0133 10.7499 13.1755 10.5875C13.3379 10.4252 13.5343 10.3441 13.7647 10.3441C13.9951 10.3441 14.1915 10.4252 14.3539 10.5875C14.5161 10.7499 14.5972 10.9464 14.5972 11.177C14.5972 11.4077 14.5161 11.6042 14.3539 11.7664C14.1915 11.9289 13.9951 12.0101 13.7647 12.0101ZM10 15.7042C9.76957 15.7042 9.57318 15.623 9.41082 15.4605C9.24863 15.2983 9.16753 15.1019 9.16753 14.8713C9.16753 14.6406 9.24863 14.4441 9.41082 14.2818C9.57318 14.1194 9.76957 14.0382 10 14.0382C10.2304 14.0382 10.4268 14.1194 10.5892 14.2818C10.7514 14.4441 10.8325 14.6406 10.8325 14.8713C10.8325 15.1019 10.7514 15.2983 10.5892 15.4605C10.4268 15.623 10.2304 15.7042 10 15.7042ZM6.23529 15.7042C6.00486 15.7042 5.80847 15.623 5.64612 15.4605C5.48392 15.2983 5.40282 15.1019 5.40282 14.8713C5.40282 14.6406 5.48392 14.4441 5.64612 14.2818C5.80847 14.1194 6.00486 14.0382 6.23529 14.0382C6.46573 14.0382 6.66212 14.1194 6.82447 14.2818C6.98667 14.4441 7.06776 14.6406 7.06776 14.8713C7.06776 15.1019 6.98667 15.2983 6.82447 15.4605C6.66212 15.623 6.46573 15.7042 6.23529 15.7042ZM13.7647 15.7042C13.5343 15.7042 13.3379 15.623 13.1755 15.4605C13.0133 15.2983 12.9322 15.1019 12.9322 14.8713C12.9322 14.6406 13.0133 14.4441 13.1755 14.2818C13.3379 14.1194 13.5343 14.0382 13.7647 14.0382C13.9951 14.0382 14.1915 14.1194 14.3539 14.2818C14.5161 14.4441 14.5972 14.6406 14.5972 14.8713C14.5972 15.1019 14.5161 15.2983 14.3539 15.4605C14.1915 15.623 13.9951 15.7042 13.7647 15.7042Z" fill="#5C5F68"/>
</svg>
