<svg width="32" height="33" viewBox="0 0 32 33" fill="none" xmlns="http://www.w3.org/2000/svg">
<g clip-path="url(#clip0_2037_5351)">
<path d="M5.33333 24.5711H26.6667C27.4 24.5711 28 23.9711 28 23.2378C28 22.5045 27.4 21.9045 26.6667 21.9045H5.33333C4.6 21.9045 4 22.5045 4 23.2378C4 23.9711 4.6 24.5711 5.33333 24.5711ZM5.33333 17.9045H26.6667C27.4 17.9045 28 17.3045 28 16.5711C28 15.8378 27.4 15.2378 26.6667 15.2378H5.33333C4.6 15.2378 4 15.8378 4 16.5711C4 17.3045 4.6 17.9045 5.33333 17.9045ZM4 9.90447C4 10.6378 4.6 11.2378 5.33333 11.2378H26.6667C27.4 11.2378 28 10.6378 28 9.90447C28 9.17114 27.4 8.57114 26.6667 8.57114H5.33333C4.6 8.57114 4 9.17114 4 9.90447Z" fill="#FF4E45"/>
</g>
<defs>
<clipPath id="clip0_2037_5351">
<rect width="32" height="32" fill="white" transform="translate(0 0.571136)"/>
</clipPath>
</defs>
</svg>
