<svg width="35" height="34" viewBox="0 0 35 34" fill="none" xmlns="http://www.w3.org/2000/svg">
<path d="M26.0358 6.07373C24.939 6.07373 24.0479 6.96486 24.0479 8.06163C24.0479 9.15841 24.939 10.0495 26.0358 10.0495C27.1325 10.0495 28.0236 9.15841 28.0236 8.06163C28.0236 6.96486 27.1325 6.07373 26.0358 6.07373Z" fill="white"/>
<path d="M17.1657 8.62354C12.5455 8.62354 8.78906 12.38 8.78906 17.0001C8.78906 21.6203 12.5455 25.3768 17.1657 25.3768C21.7858 25.3768 25.5423 21.6203 25.5423 17.0001C25.5423 12.38 21.7858 8.62354 17.1657 8.62354ZM17.1657 22.3606C14.2044 22.3606 11.8052 19.9477 11.8052 17.0001C11.8052 14.0526 14.2181 11.6397 17.1657 11.6397C20.1133 11.6397 22.5262 14.0526 22.5262 17.0001C22.5262 19.9477 20.1133 22.3606 17.1657 22.3606Z" fill="white"/>
<path d="M23.8146 34H10.242C4.60736 34 0.0283203 29.421 0.0283203 23.7863V10.2137C0.0283203 4.57903 4.60736 0 10.242 0H23.8146C29.4493 0 34.0283 4.57903 34.0283 10.2137V23.7863C34.0283 29.421 29.4493 34 23.8146 34ZM10.242 3.19435C6.37591 3.19435 3.22268 6.34758 3.22268 10.2137V23.7863C3.22268 27.6524 6.37591 30.8056 10.242 30.8056H23.8146C27.6807 30.8056 30.834 27.6524 30.834 23.7863V10.2137C30.834 6.34758 27.6807 3.19435 23.8146 3.19435H10.242Z" fill="white"/>
</svg>
