<svg width="35" height="34" viewBox="0 0 35 34" fill="none" xmlns="http://www.w3.org/2000/svg">
<path d="M1.08419 11.2873H8.16032V34H1.08419V11.2873ZM4.62224 0C6.88316 0 8.71262 1.82944 8.71262 4.09036C8.71262 6.35127 6.88316 8.18071 4.62224 8.18071C2.36133 8.18071 0.514648 6.35127 0.514648 4.09036C0.514648 1.82944 2.34407 0 4.62224 0Z" fill="white"/>
<path d="M12.5964 11.2873H19.3619V14.3939H19.4482C20.3974 12.599 22.6928 10.7178 26.1273 10.7178C33.2725 10.7178 34.6015 15.4122 34.6015 21.5391V34H27.5425V22.9543C27.5425 20.3137 27.4908 16.931 23.8664 16.931C20.2421 16.931 19.638 19.7959 19.638 22.7645V34H12.5791V11.2873H12.5964Z" fill="white"/>
</svg>
