<svg width="193" height="34" viewBox="0 0 193 34" fill="none" xmlns="http://www.w3.org/2000/svg">
<path d="M10.804 33.7168C10.2697 33.7168 9.6364 33.6621 8.90419 33.5577C8.17198 33.4533 7.45956 33.2146 6.76198 32.8417C6.06441 32.4688 5.47568 31.8771 4.99578 31.0666C4.52084 30.2561 4.28336 29.1672 4.28336 27.7899V13.8727H1.11211C0.548108 13.8727 0.266113 13.5893 0.266113 13.0175C0.266113 12.7192 0.399691 12.4656 0.666848 12.2518L6.7422 6.28019C6.80157 6.22052 6.90051 6.13599 7.03409 6.03158C7.16767 5.92716 7.32598 5.87247 7.50409 5.87247C7.74156 5.87247 7.9444 5.96197 8.10766 6.14097C8.27093 6.31997 8.35503 6.5288 8.35503 6.76746V10.3574H13.4013C13.906 10.3574 14.3215 10.5215 14.653 10.8496C14.9795 11.1778 15.1428 11.6004 15.1428 12.1076C15.1428 12.5849 14.9795 12.9976 14.653 13.3407C14.3265 13.6838 13.906 13.8578 13.4013 13.8578H8.35503V27.417C8.35503 28.2871 8.5183 28.9136 8.84482 29.3015C9.17135 29.6893 9.56714 29.923 10.0272 29.9976C10.4873 30.0722 10.898 30.1119 11.2542 30.1119C11.9666 30.1119 12.496 30.0473 12.8423 29.9081C13.1837 29.7738 13.5498 29.7042 13.9356 29.7042C14.3512 29.7042 14.7223 29.8534 15.0538 30.1517C15.3803 30.4501 15.5435 30.8429 15.5435 31.3202C15.5435 32.0113 15.2022 32.5334 14.5145 32.8914C13.9802 33.1301 13.4063 33.324 12.7928 33.4732C12.1843 33.6223 11.5213 33.6969 10.804 33.6969V33.7168Z" fill="#FF4E45"/>
<path d="M22.0145 33.4931C21.4505 33.4931 20.9706 33.2991 20.5847 32.9113C20.1988 32.5235 20.0059 32.0412 20.0059 31.4743V12.217C20.0059 11.6502 20.1988 11.1629 20.5847 10.7601C20.9706 10.3574 21.4455 10.1535 22.0145 10.1535C22.5834 10.1535 23.0633 10.3574 23.4641 10.7601C23.8648 11.1629 24.0676 11.6502 24.0676 12.217V14.1462C24.8741 13.0673 25.8536 12.0977 27.0163 11.2275C28.1789 10.3624 29.5295 9.92482 31.083 9.92482H31.3056C31.8696 9.92482 32.3396 10.1187 32.7107 10.5066C33.0817 10.8944 33.2697 11.3767 33.2697 11.9435C33.2697 12.5104 33.0768 12.9778 32.6909 13.3358C32.305 13.6937 31.8102 13.8727 31.2166 13.8727H30.9939C29.5345 13.8727 28.2086 14.2407 27.0212 14.9716C25.8289 15.7075 24.8493 16.6572 24.0726 17.8207V31.4694C24.0726 32.0362 23.8697 32.5185 23.469 32.9063C23.0683 33.2942 22.5834 33.4881 22.0194 33.4881L22.0145 33.4931Z" fill="#FF4E45"/>
<path d="M44.8812 33.7168C43.1843 33.7168 41.7396 33.319 40.5473 32.5284C39.355 31.7379 38.4497 30.6639 37.8213 29.3164C37.198 27.9689 36.8813 26.5021 36.8813 24.916V12.1673C36.8813 11.6004 37.0842 11.1181 37.4849 10.7303C37.8857 10.3425 38.3705 10.1486 38.9345 10.1486C39.4985 10.1486 39.9784 10.3425 40.3643 10.7303C40.7502 11.1181 40.9431 11.6004 40.9431 12.1673V24.4685C40.9431 26.174 41.329 27.5115 42.1058 28.486C42.8825 29.4606 44.1292 29.9429 45.8558 29.9429C47.4637 29.9429 48.8638 29.5004 50.0562 28.6203C51.2485 27.7402 52.2874 26.7408 53.1829 25.637V12.1722C53.1829 11.6054 53.3857 11.1231 53.7865 10.7353C54.1872 10.3474 54.672 10.1535 55.236 10.1535C55.8 10.1535 56.2799 10.3474 56.6658 10.7353C57.0517 11.1231 57.2447 11.6054 57.2447 12.1722V31.4296C57.2447 31.9964 57.0517 32.4837 56.6658 32.8864C56.2799 33.2892 55.8 33.493 55.236 33.493C54.672 33.493 54.1872 33.2892 53.7865 32.8864C53.3857 32.4837 53.1829 31.9964 53.1829 31.4296V29.5899C52.2627 30.6092 51.1446 31.5489 49.8335 32.419C48.5225 33.2892 46.8701 33.7218 44.8763 33.7218L44.8812 33.7168Z" fill="#FF4E45"/>
<path d="M71.6814 33.7168C70.0438 33.7168 68.5596 33.5378 67.2387 33.1798C65.9177 32.8218 64.6858 32.3246 63.5529 31.6981C63.0483 31.3401 62.791 30.8429 62.791 30.2164C62.791 29.7689 62.9543 29.3562 63.2808 28.9833C63.6073 28.6104 64.0229 28.4214 64.5325 28.4214C64.7996 28.4214 65.0668 28.4811 65.3389 28.6004C66.1453 28.9584 67.0309 29.2717 67.9956 29.5451C68.9653 29.8136 70.1032 29.9479 71.4142 29.9479C73.1409 29.9479 74.3975 29.6694 75.1891 29.1175C75.9757 28.5656 76.3715 27.78 76.3715 26.7607C76.3715 26.1044 76.0499 25.5922 75.4117 25.2342C74.7735 24.8762 73.9374 24.568 72.9083 24.3144C71.8793 24.0608 70.8008 23.7923 69.6678 23.5039C68.5349 23.2205 67.4564 22.8327 66.4273 22.3354C65.3983 21.8432 64.5671 21.167 63.9239 20.3167C63.2808 19.4615 62.9642 18.3626 62.9642 17.0152C62.9642 14.9815 63.6914 13.291 65.1509 11.9435C66.6104 10.5961 68.7823 9.92482 71.6715 9.92482C72.8935 9.92482 74.0462 10.0292 75.1347 10.2381C76.2231 10.4469 77.2274 10.7154 78.1476 11.0485C78.5632 11.1679 78.8847 11.4016 79.1074 11.7446C79.33 12.0877 79.4438 12.4258 79.4438 12.754C79.4438 13.2313 79.2706 13.654 78.9293 14.012C78.5879 14.37 78.1624 14.549 77.6578 14.549C77.5391 14.549 77.4352 14.544 77.3461 14.5291C77.2571 14.5142 77.168 14.4943 77.079 14.4595C76.3666 14.2208 75.5849 14.0269 74.7339 13.8777C73.883 13.7286 72.9677 13.654 71.9881 13.654C70.3506 13.654 69.084 13.9523 68.1935 14.549C67.298 15.1506 66.8528 15.8964 66.8528 16.7914C66.8528 17.5721 67.1744 18.1687 67.8126 18.5864C68.4508 19.0041 69.2869 19.3422 70.3159 19.5958C71.345 19.8493 72.4285 20.1129 73.5762 20.3814C74.724 20.6499 75.8075 21.0327 76.8365 21.525C77.8656 22.0172 78.6967 22.6984 79.3399 23.5685C79.9781 24.4387 80.2997 25.6022 80.2997 27.069C80.2997 28.8938 79.5774 30.46 78.1327 31.7578C76.6881 33.0605 74.536 33.7118 71.6765 33.7118L71.6814 33.7168Z" fill="#FF4E45"/>
<path d="M92.361 33.493C91.7673 33.493 91.228 33.3041 90.7531 32.9312C90.2781 32.5583 89.9467 32.1157 89.7686 31.6086L83.4261 12.933C83.337 12.6645 83.2925 12.4109 83.2925 12.1673C83.2925 11.6004 83.4854 11.1181 83.8713 10.7303C84.2572 10.3425 84.7371 10.1486 85.3011 10.1486C85.7167 10.1486 86.0976 10.253 86.439 10.4618C86.7804 10.6706 87.0129 10.969 87.1316 11.3568L92.356 28.6402L97.5359 11.7596C97.6843 11.2822 97.9614 10.8944 98.3621 10.5911C98.7629 10.2928 99.218 10.1436 99.7226 10.1436C100.227 10.1436 100.692 10.2928 101.108 10.5911C101.523 10.8894 101.791 11.2772 101.914 11.7596L107.094 28.6402L112.319 11.3568C112.437 10.969 112.675 10.6706 113.031 10.4618C113.387 10.253 113.758 10.1486 114.149 10.1486C114.713 10.1486 115.193 10.3425 115.579 10.7303C115.965 11.1181 116.158 11.6004 116.158 12.1673C116.158 12.4059 116.113 12.6595 116.024 12.933L109.682 31.6086C109.504 32.1157 109.177 32.5583 108.697 32.9312C108.222 33.3041 107.683 33.493 107.089 33.493C106.496 33.493 105.956 33.3041 105.481 32.9312C105.006 32.5583 104.66 32.1008 104.452 31.5638L99.7177 16.7069L94.9831 31.5638C94.7753 32.1008 94.429 32.5583 93.954 32.9312C93.4791 33.3041 92.9398 33.493 92.3461 33.493H92.361Z" fill="#FF4E45"/>
<path d="M122.871 5.70838C122.248 5.70838 121.709 5.48463 121.264 5.03713C120.818 4.58963 120.596 4.04766 120.596 3.42117V3.24217C120.596 2.61567 120.818 2.0737 121.264 1.6262C121.709 1.1787 122.248 0.954956 122.871 0.954956H123.139C123.762 0.954956 124.301 1.1787 124.747 1.6262C125.192 2.0737 125.414 2.61567 125.414 3.24217V3.42117C125.414 4.04766 125.192 4.58963 124.747 5.03713C124.301 5.48463 123.762 5.70838 123.139 5.70838H122.871ZM122.961 33.493C122.397 33.493 121.917 33.2991 121.531 32.9113C121.145 32.5235 120.952 32.0412 120.952 31.4743V12.217C120.952 11.6203 121.145 11.1231 121.531 10.7353C121.917 10.3474 122.397 10.1535 122.961 10.1535C123.554 10.1535 124.049 10.3474 124.435 10.7353C124.821 11.1231 125.014 11.6203 125.014 12.217V31.4743C125.014 32.0412 124.821 32.5235 124.435 32.9113C124.049 33.2991 123.554 33.493 122.961 33.493Z" fill="#FF4E45"/>
<path d="M139.93 33.7168C139.396 33.7168 138.762 33.6621 138.03 33.5577C137.298 33.4533 136.586 33.2146 135.888 32.8417C135.19 32.4688 134.602 31.8771 134.122 31.0666C133.647 30.2561 133.409 29.1672 133.409 27.7899V13.8727H130.238C129.674 13.8727 129.392 13.5893 129.392 13.0175C129.392 12.7192 129.526 12.4656 129.793 12.2518L135.868 6.28019C135.928 6.22052 136.026 6.13599 136.16 6.03158C136.294 5.92716 136.452 5.87247 136.63 5.87247C136.868 5.87247 137.07 5.96197 137.234 6.14097C137.397 6.31997 137.481 6.5288 137.481 6.76746V10.3574H142.527C143.032 10.3574 143.448 10.5215 143.779 10.8496C144.106 11.1778 144.269 11.6004 144.269 12.1076C144.269 12.5849 144.106 12.9976 143.779 13.3407C143.452 13.6838 143.032 13.8578 142.527 13.8578H137.481V27.417C137.481 28.2871 137.644 28.9136 137.971 29.3015C138.297 29.6893 138.693 29.923 139.153 29.9976C139.613 30.0722 140.024 30.1119 140.38 30.1119C141.093 30.1119 141.622 30.0473 141.968 29.9081C142.31 29.7738 142.676 29.7042 143.062 29.7042C143.477 29.7042 143.848 29.8534 144.18 30.1517C144.506 30.4501 144.67 30.8429 144.67 31.3202C144.67 32.0113 144.328 32.5334 143.64 32.8914C143.106 33.1301 142.532 33.324 141.919 33.4732C141.31 33.6223 140.647 33.6969 139.93 33.6969V33.7168Z" fill="#FF4E45"/>
<path d="M159.363 33.7168C157.251 33.7168 155.282 33.2444 153.466 32.3047C151.65 31.36 150.191 30.0025 149.087 28.2175C147.984 26.4375 147.435 24.3044 147.435 21.8233C147.435 19.3421 147.984 17.1693 149.087 15.4042C150.191 13.639 151.65 12.2866 153.466 11.3419C155.282 10.3972 157.246 9.92976 159.363 9.92976C161.119 9.92976 162.584 10.1635 163.761 10.6259C164.939 11.0883 165.899 11.5756 166.641 12.0827C167.234 12.4706 167.536 12.9976 167.536 13.6539C167.536 14.0716 167.373 14.4793 167.046 14.8672C166.72 15.255 166.319 15.4489 165.839 15.4489C165.513 15.4489 165.186 15.3594 164.855 15.1804C164.078 14.7627 163.321 14.4147 162.574 14.1462C161.827 13.8777 160.877 13.7434 159.714 13.7434C157.122 13.7434 155.108 14.4942 153.664 15.9859C152.219 17.4825 151.497 19.4267 151.497 21.8233C151.497 24.2199 152.219 26.164 153.664 27.6606C155.108 29.1573 157.127 29.9031 159.714 29.9031C160.877 29.9031 161.827 29.7589 162.574 29.4755C163.316 29.1921 164.078 28.854 164.855 28.4661C165.181 28.2871 165.508 28.1976 165.839 28.1976C166.314 28.1976 166.72 28.3915 167.046 28.7794C167.373 29.1672 167.536 29.5749 167.536 29.9926C167.536 30.6489 167.239 31.176 166.641 31.5638C165.894 32.0411 164.934 32.5234 163.761 33.0008C162.584 33.4781 161.119 33.7168 159.363 33.7168Z" fill="#FF4E45"/>
<path d="M174.636 33.493C174.072 33.493 173.592 33.2991 173.206 32.9113C172.82 32.5235 172.627 32.0412 172.627 31.4743V2.34221C172.627 1.74555 172.82 1.24833 173.206 0.860495C173.592 0.472663 174.072 0.278748 174.636 0.278748C175.2 0.278748 175.684 0.472663 176.085 0.860495C176.486 1.24833 176.689 1.74555 176.689 2.34221V14.0567C177.644 13.0076 178.767 12.0579 180.063 11.2076C181.359 10.3524 183.002 9.92979 185 9.92979C186.697 9.92979 188.142 10.3276 189.334 11.1181C190.526 11.9137 191.432 12.9728 192.06 14.3053C192.684 15.6379 193 17.1096 193 18.7256V31.4743C193 32.0412 192.797 32.5235 192.397 32.9113C191.996 33.2991 191.511 33.493 190.947 33.493C190.383 33.493 189.903 33.2991 189.517 32.9113C189.131 32.5235 188.938 32.0412 188.938 31.4743V19.1731C188.938 17.4676 188.557 16.1301 187.8 15.1556C187.044 14.181 185.782 13.6987 184.026 13.6987C182.418 13.6987 181.018 14.1313 179.825 15.0014C178.633 15.8716 177.594 16.871 176.699 18.0096V31.4743C176.699 32.0412 176.496 32.5235 176.095 32.9113C175.694 33.2991 175.209 33.493 174.645 33.493H174.636Z" fill="#FF4E45"/>
</svg>
