<svg width="52" height="42" viewBox="0 0 52 42" fill="none" xmlns="http://www.w3.org/2000/svg">
<path d="M26.9334 0.203567C12.1556 -0.363264 0 11.5104 0 26.238C0 30.4992 1.01915 34.5267 2.82494 38.0768C4.00241 40.3939 6.40682 41.8159 8.99429 41.8159H42.854C45.4513 41.8159 47.8557 40.379 49.0332 38.0569C50.8934 34.3924 51.9126 30.2257 51.8433 25.8154C51.6256 12.0772 40.593 0.725648 26.9334 0.203567ZM18.1123 32.6024C15.51 32.6024 13.4024 30.4843 13.4024 27.8689C13.4024 25.2535 15.51 23.1354 18.1123 23.1354C20.7146 23.1354 22.8221 25.2535 22.8221 27.8689C22.8221 30.4843 20.7146 32.6024 18.1123 32.6024ZM21.1005 14.1307C21.1005 11.5153 23.208 9.39717 25.8103 9.39717C28.4126 9.39717 30.5202 11.5153 30.5202 14.1307C30.5202 16.7461 28.4126 18.8642 25.8103 18.8642C23.208 18.8642 21.1005 16.7461 21.1005 14.1307ZM33.736 32.3737C31.1337 32.3737 29.0261 30.2556 29.0261 27.6402C29.0261 25.0248 31.1337 22.9066 33.736 22.9066C36.3383 22.9066 38.4459 25.0248 38.4459 27.6402C38.4459 30.2556 36.3383 32.3737 33.736 32.3737Z" fill="#FF4E45"/>
</svg>
