<svg width="27" height="26" viewBox="0 0 27 26" fill="none" xmlns="http://www.w3.org/2000/svg">
<path d="M14.9444 14.216L14.9444 23.9451C14.9444 24.3091 14.8025 24.6318 14.5186 24.9131C14.2348 25.1943 13.9093 25.335 13.5419 25.335C13.1746 25.335 12.8491 25.1943 12.5653 24.9131C12.2814 24.6318 12.1395 24.3091 12.1395 23.9451L12.1395 14.216L2.32252 14.216C1.95522 14.216 1.62966 14.0754 1.34583 13.7941C1.06201 13.5128 0.920095 13.1902 0.920095 12.8262C0.920095 12.4622 1.06201 12.1395 1.34583 11.8582C1.62966 11.5769 1.95522 11.4363 2.32252 11.4363L12.1395 11.4363L12.1395 1.70723C12.1395 1.34322 12.2814 1.02057 12.5653 0.739289C12.8491 0.458007 13.1746 0.317365 13.5419 0.317366C13.9093 0.317366 14.2348 0.458007 14.5186 0.739289C14.8025 1.02057 14.9444 1.34322 14.9444 1.70723L14.9444 11.4363L24.7614 11.4363C25.1287 11.4363 25.4542 11.5769 25.7381 11.8582C26.0219 12.1395 26.1638 12.4622 26.1638 12.8262C26.1638 13.1902 26.0219 13.5128 25.7381 13.7941C25.4542 14.0754 25.1287 14.216 24.7614 14.216L14.9444 14.216Z" fill="#FF4E45"/>
</svg>
