<svg width="19" height="19" viewBox="0 0 19 19" fill="none" xmlns="http://www.w3.org/2000/svg">
<path d="M11.4835 9.96133L18.4251 16.6988C18.6849 16.9509 18.8147 17.2717 18.8147 17.6613C18.8147 18.0509 18.6849 18.3717 18.4251 18.6238C18.1654 18.8759 17.8349 19.002 17.4335 19.002C17.0321 19.002 16.7015 18.8759 16.4418 18.6238L9.50013 11.8863L2.55846 18.6238C2.29874 18.8759 1.96819 19.002 1.5668 19.002C1.16541 19.002 0.834852 18.8759 0.57513 18.6238C0.315408 18.3717 0.185547 18.0509 0.185547 17.6613C0.185547 17.2717 0.315408 16.9509 0.57513 16.6988L7.5168 9.96133L0.575129 3.22383C0.315407 2.97174 0.185546 2.65091 0.185546 2.26133C0.185546 1.87174 0.315407 1.55091 0.575129 1.29883C0.834852 1.04675 1.16541 0.920702 1.5668 0.920702C1.96818 0.920702 2.29874 1.04675 2.55846 1.29883L9.50013 8.03633L16.4418 1.29883C16.7015 1.04674 17.0321 0.920701 17.4335 0.920701C17.8349 0.920701 18.1654 1.04674 18.4251 1.29883C18.6849 1.55091 18.8147 1.87174 18.8147 2.26133C18.8147 2.65091 18.6849 2.97174 18.4251 3.22383L11.4835 9.96133Z" fill="#FF4E45"/>
</svg>
